<mxfile host="app.diagrams.net" modified="2024-05-17T04:00:38.627Z" agent="Mozilla/5.0 (Macintosh; Intel Mac OS X 10_15_7) AppleWebKit/605.1.15 (KHTML, like Gecko) Version/16.4.1 Safari/605.1.15" version="24.4.3" etag="EdXOjI9fs4iY8KFjl6Y1" type="github">
  <diagram name="Page-1" id="Bq3JBh404wSR88EqiIdb">
    <mxGraphModel>
      <root>
        <mxCell id="0" />
        <mxCell id="1" parent="0" />
      </root>
    </mxGraphModel>
  </diagram>
</mxfile>
